# AST/ASF file generated using VICON BodyLanguage
# -----------------------------------------------
:version 1.10
:name VICON
:units
  mass 1.0
  length 0.45
  angle deg
:documentation
   .ast/.asf automatically generated from VICON data using
   VICON BodyBuilder and BodyLanguage model FoxedUp or BRILLIANT.MOD
:root
   order TX TY TZ RX RY RZ
   axis XYZ
   position 0 0 0  
   orientation 0 0 0 
:bonedata
  begin
     id 1 
     name lhipjoint
     direction 0.623529 -0.717805 0.309788 
     length 2.23224 
     axis 0 0 0  XYZ
  end
  begin
     id 2 
     name lfemur
     direction 0.34202 -0.939693 0  
     length 7.11402  
     axis 0 0 20  XYZ
    dof rx ry rz
    limits (-160.0 20.0)
           (-70.0 70.0)
           (-60.0 70.0)
  end
  begin
     id 3 
     name ltibia
     direction 0.34202 -0.939693 0   
     length 6.78496   
     axis 0 0 20   XYZ
    dof rx
    limits (-10.0 170.0)
  end
  begin
     id 4 
     name lfoot
     direction 0.125078 -0.343648 0.930732   
     length 1.84054   
     axis -90 7.62852e-016 20   XYZ
    dof rx rz
    limits (-45.0 90.0)
           (-70.0 20.0)
  end
  begin
     id 5 
     name ltoes
     direction 1.53565e-011 -4.21893e-011 1   
     length 0.916474   
     axis -90 7.62852e-016 20   XYZ
    dof rx
    limits (-90.0 20.0)
  end
  begin
     id 6 
     name rhipjoint
     direction -0.564688 -0.757748 0.327026   
     length 2.11457  
     axis 0 0 0  XYZ 
  end
  begin
     id 7 
     name rfemur
     direction -0.34202 -0.939693 0   
     length 7.14609   
     axis 0 0 -20   XYZ
    dof rx ry rz
    limits (-160.0 20.0)
           (-70.0 70.0)
           (-70.0 60.0)
  end
  begin
     id 8 
     name rtibia
     direction -0.34202 -0.939693 0   
     length 6.78101   
     axis 0 0 -20   XYZ
    dof rx
    limits (-10.0 170.0)
 end
 begin
     id 9 
     name rfoot
     direction -0.0992671 -0.272734 0.956955   
     length 1.96168  
     axis -90 -7.62852e-016 -20   XYZ
    dof rx rz
    limits (-45.0 90.0)
           (-20.0 70.0)
  end
  begin
     id 10 
     name rtoes
     direction -1.5356e-011 -4.21891e-011 1   
     length 0.982933   
     axis -90 -7.62852e-016 -20   XYZ
    dof rx
    limits (-90.0 20.0)
  end
  begin
     id 11 
     name lowerback
     direction -0.00596953 0.998668 0.0512524   
     length 1.87557   
     axis 0 0 0   XYZ
    dof rx ry rz
    limits (-20.0 45.0)
           (-30.0 30.0)
           (-30.0 30.0)
  end
  begin
     id 12 
     name upperback
     direction 0.00584879 0.999652 0.0257308   
     length 1.87883   
     axis 0 0 0   XYZ
    dof rx ry rz
    limits (-20.0 45.0)
           (-30.0 30.0)
           (-30.0 30.0)
  end
  begin
     id 13 
     name thorax
     direction 0.010104 0.999947 0.00178881   
     length 1.87779   
     axis 0 0 0   XYZ
    dof rx ry rz
    limits (-20.0 45.0)
           (-30.0 30.0)
           (-30.0 30.0)
  end
  begin
     id 14 
     name lowerneck
     direction 0.0120771 0.995934 -0.0892773   
     length 1.40897   
     axis 0 0 0   XYZ
    dof rx ry rz
    limits (-20.0 45.0)
           (-30.0 30.0)
           (-30.0 30.0)
  end
  begin
     id 15 
     name upperneck
     direction -0.030568 0.999465 -0.0116366   
     length 1.38661   
     axis 0 0 0   XYZ
    dof rx ry rz
    limits (-20.0 45.0)
           (-30.0 30.0)
           (-30.0 30.0)
  end
  begin
     id 16
     name head
     direction -0.0170715 0.999854 -0.00104426  
     length 1.47052  
     axis 0 0 0   XYZ
    dof rx ry rz
    limits (-20.0 45.0)
           (-30.0 30.0)
           (-30.0 30.0)
  end
  begin
     id 17 
     name lclavicle
     direction 0.977763 0.206143 0.038532  
     length 3.02424  
     axis 0 0 0   XYZ
    dof ry rz
    limits (-20.0 10.0)
           (0.0 20.0)
  end
  begin
     id 18 
     name lhumerus
     direction 1 -4.48965e-011 -2.62654e-027   
     length 4.68382   
     axis 180 -30 -90   XYZ
    dof rx ry rz
    limits (-60.0 90.0)
           (-90.0 90.0)
           (-90.0 90.0)
  end
  begin
     id 19
     name lradius
     direction 1 -4.48973e-011 -1.54954e-027   
     length 2.98124   
     axis 180 -30 -90   XYZ
    dof rx
    limits (-10.0 170.0)
  end
  begin
     id 20
     name lwrist
     direction 1 -4.48959e-011 7.20928e-028   
     length 1.49062   
     axis -5.52449e-016 90 90   XYZ
    dof ry
    limits (-180.0 0.0)
 end
  begin
     id 21 
     name lhand
     direction 1 -4.48971e-011 1.44186e-027   
     length 0.707595   
     axis -9.20027e-016 90 90   XYZ
    dof rx rz
    limits (-90.0 90.0)
           (-45.0 45.0)
  end
  begin
     id 22 
     name lfingers
     direction 1 -4.48985e-011 2.88371e-027   
     length 0.570481   
     axis -1.84005e-015 90 90   XYZ
    dof rx
    limits (0.0 90.0)
  end
  begin
     id 23
     name lthumb
     direction 0.707107 -6.34929e-011 0.707107   
     length 0.819101   
     axis -90 45 2.85299e-015   XYZ
    dof rx rz
    limits (-45.0 45.0)
           (-45.0 45.0)
  end
  begin
     id 24 
     name rclavicle
     direction -0.958661 0.284411 -0.00895327   
     length 3.11921  
     axis 0 0 0   XYZ 
    dof ry rz
    limits (-10.0 20.0)
           (-20.0 0.0)
  end
  begin
     id 25 
     name rhumerus
     direction -1 -4.48963e-011 -4.22193e-027  
     length 4.75876   
     axis 180 30 90   XYZ
    dof rx ry rz
    limits (-90.0 60.0)
           (-90.0 90.0)
           (-90.0 90.0)
  end
  begin
     id 26 
     name rradius
     direction -1 -4.48968e-011 -1.07616e-027   
     length 2.93293   
     axis 180 30 90   XYZ
    dof rx
    limits (-10.0 170.0)
  end
  begin
     id 27 
     name rwrist
     direction -1 -4.48965e-011 7.20928e-028   
     length 1.46647   
     axis -5.52449e-016 -90 -90   XYZ
    dof ry
    limits (-180.0 0.0)
  end
  begin
     id 28
     name rhand
     direction -1 -4.48971e-011 1.44186e-027   
     length 0.831748   
     axis -9.20027e-016 -90 -90   XYZ
    dof rx rz
    limits (-90.0 90.0)
           (-45.0 45.0)
  end
  begin
     id 29
     name rfingers
     direction -1 -4.48961e-011 2.88371e-027   
     length 0.670577   
     axis -1.84005e-015 -90 -90   XYZ
    dof rx
    limits (0.0 90.0)
  end
  begin
     id 30
     name rthumb
     direction -0.707107 -6.34929e-011 0.707107   
     length 0.962818   
     axis -90 -45 -2.85299e-015   XYZ
    dof rx rz
    limits (-45.0 45.0)
           (-45.0 45.0)
  end
:hierarchy
  begin
    root lhipjoint rhipjoint lowerback
    lhipjoint lfemur
    lfemur ltibia
    ltibia lfoot
    lfoot ltoes
    rhipjoint rfemur
    rfemur rtibia
    rtibia rfoot
    rfoot rtoes
    lowerback upperback
    upperback thorax
    thorax lowerneck lclavicle rclavicle
    lowerneck upperneck
    upperneck head
    lclavicle lhumerus
    lhumerus lradius
    lradius lwrist
    lwrist lhand lthumb
    lhand lfingers
    rclavicle rhumerus
    rhumerus rradius
    rradius rwrist
    rwrist rhand rthumb
    rhand rfingers
  end

#!OML:ASF E:\id_vita\Project 1\Capture day 1\Session 1\Female.ASF
:FULLY-SPECIFIED
:DEGREES
101
root 11.0943 26.0103 0.278047 -89.8127 -88.5606 115.082
lowerback -5.17457 -0.164464 -4.10636
upperback -4.07215 -0.169247 -0.326585
thorax -1.28874 -0.0438464 1.96008
lowerneck -2.24385 -0.764269 -5.64791
upperneck -9.27514 -0.635955 8.39037
head -2.57222 -0.433021 3.81867
rclavicle -2.18663e-015 -2.00773e-014
rhumerus 32.6444 -11.6298 -17.2774
rradius 92.3854
rwrist -7.44924
rhand -39.2778 15.2102
rfingers 7.12502
rthumb -12.2715 -14.4097
lclavicle -2.18663e-015 -2.00773e-014
lhumerus 45.3765 9.78877 12.9039
lradius 72.5318
lwrist 2.54002
lhand -26.3682 27.8873
lfingers 7.12502
lthumb 0.190135 57.867
rfemur -63.4253 -6.10805 23.2744
rtibia 56.5909
rfoot -9.28586 -8.79681
rtoes -18.6041
lfemur -62.8102 -2.89053 -19.4722
ltibia 58.0733
lfoot -13.8815 8.43596
ltoes -8.70871
102
root 11.2034 26.172 0.268169 -88.286 -88.5161 113.857
lowerback -4.95746 -0.195499 -4.25648
upperback -4.15492 -0.221404 -0.398561
thorax -1.49273 -0.0634058 1.96869
lowerneck -1.73523 -0.793041 -5.93908
upperneck -9.80516 -0.595127 9.34333
head -2.54919 -0.467294 3.82085
rclavicle -2.03754e-015 -7.35503e-015
rhumerus 34.0971 -12.2574 -17.3224
rradius 90.8841
rwrist -7.26785
rhand -39.5249 14.785
rfingers 7.12502
rthumb -12.5098 -14.8205
lclavicle -2.03754e-015 -7.35503e-015
lhumerus 46.7118 10.3385 13.2172
lradius 70.662
lwrist 2.21311
lhand -26.4273 28.1066
lfingers 7.12502
lthumb 0.13301 58.0863
rfemur -62.9636 -6.13447 23.1819
rtibia 54.1631
rfoot -7.41077 -7.11721
rtoes -18.1151
lfemur -62.6414 -2.65191 -19.3965
ltibia 56.0713
lfoot -12.2352 6.71668
ltoes -8.93362
103
root 11.3141 26.3473 0.260964 -90.2054 -88.5616 116.027
lowerback -4.61295 -0.180469 -4.24866
upperback -4.27431 -0.225616 -0.457933
thorax -1.80844 -0.0594621 1.90414
lowerneck -2.22369 -0.288371 -5.04254
upperneck -10.1844 0.0244228 8.41452
head -2.93568 -0.149473 3.72459
rclavicle -1.3418e-015 -1.92821e-014
rhumerus 35.5006 -12.8656 -17.4196
rradius 89.2878
rwrist -7.26735
rhand -39.5133 14.5255
rfingers 7.12502
rthumb -12.4986 -15.0807
lclavicle -1.3418e-015 -1.92821e-014
lhumerus 47.9943 10.8311 13.5658
lradius 68.7457
lwrist 1.92664
lhand -26.6492 28.486
lfingers 7.12502
lthumb -0.0813083 58.4658
rfemur -62.3763 -6.03281 23.0989
rtibia 51.7037
rfoot -5.47915 -5.3333
rtoes -17.629
lfemur -62.4485 -2.47536 -19.0914
ltibia 54.0612
lfoot -9.79084 4.95782
ltoes -8.34986
104
root 11.43 26.5133 0.249633 -92.7866 -88.6939 118.882
lowerback -4.39448 -0.189841 -4.25173
upperback -4.23166 -0.243949 -0.407962
thorax -1.88472 -0.0653438 1.95737
lowerneck -1.95637 -0.489768 -5.44147
upperneck -10.8581 -0.159947 9.2106
head -2.86136 -0.291129 3.703
rclavicle 1.68967e-015 3.06128e-014
rhumerus 37.0882 -13.7127 -17.4698
rradius 87.5436
rwrist -7.35163
rhand -39.6294 14.2863
rfingers 7.12502
rthumb -12.6105 -15.3131
lclavicle 1.68967e-015 3.06128e-014
lhumerus 49.263 11.7823 13.9461
lradius 66.9742
lwrist 2.8431
lhand -25.8963 27.8677
lfingers 7.12502
lthumb 0.645854 57.8465
rfemur -61.8403 -5.69511 22.927
rtibia 49.294
rfoot -3.5059 -3.799
rtoes -17.1362
lfemur -62.2701 -2.29364 -18.6805
ltibia 52.1499
lfoot -7.33992 3.49452
ltoes -7.90488
105
root 11.5473 26.6651 0.24539 -94.7223 -88.6794 121.302
lowerback -4.22489 -0.231162 -4.27832
upperback -4.35081 -0.314737 -0.440426
thorax -2.09873 -0.0961999 1.93786
lowerneck -1.63414 -0.626879 -5.06982
upperneck -11.6429 -0.365258 8.73843
head -3.13864 -0.416229 3.51074
rclavicle -4.27387e-015 -1.76918e-014
rhumerus 38.6178 -14.4231 -17.465
rradius 85.6525
rwrist -7.51099
rhand -39.9007 13.9241
rfingers 7.12502
rthumb -12.872 -15.659
lclavicle -4.27387e-015 -1.76918e-014
lhumerus 50.2261 12.5412 13.8593
lradius 65.2333
lwrist 3.27169
lhand -25.7919 27.9357
lfingers 7.12502
lthumb 0.746712 57.9141
rfemur -61.5883 -5.30344 22.464
rtibia 46.9097
rfoot -1.39496 -2.46753
rtoes -16.376
lfemur -62.3155 -2.248 -18.3486
ltibia 50.3644
lfoot -5.65445 2.45182
ltoes -6.71716
106
root 11.6435 26.7981 0.228556 -100.103 -88.6022 127.157
lowerback -4.18696 -0.273961 -4.52048
upperback -4.61025 -0.387189 -0.474271
thorax -2.38566 -0.121208 2.03777
lowerneck -1.86872 -0.658751 -5.37076
upperneck -10.8545 -0.386583 9.27594
head -2.85724 -0.411172 3.71526
rclavicle 4.57205e-015 6.95746e-015
rhumerus 40.1734 -14.8794 -17.4323
rradius 83.5306
rwrist -7.71291
rhand -40.0408 13.472
rfingers 7.12502
rthumb -13.0071 -16.1025
lclavicle 4.57205e-015 6.95746e-015
lhumerus 51.694 13.0544 14.3336
lradius 63.0857
lwrist 2.6925
lhand -26.0795 28.6796
lfingers 7.12502
lthumb 0.46895 58.6589
rfemur -61.3017 -4.43463 21.6976
rtibia 44.686
rfoot 0.646834 -2.04997
rtoes -15.538
lfemur -62.4026 -2.212 -17.8361
ltibia 48.8079
lfoot -4.72856 1.52436
ltoes -6.92572
107
root 11.7564 26.9436 0.22076 -103.12 -88.926 130.296
lowerback -3.91105 -0.32508 -4.34564
upperback -4.54806 -0.463307 -0.315284
thorax -2.46879 -0.15821 2.10368
lowerneck -2.39926 -0.131251 -5.89399
upperneck -11.3955 0.401732 9.96034
head -2.98579 -0.0330452 4.00785
rclavicle 1.68967e-015 3.79679e-014
rhumerus 42.0642 -15.7753 -17.3838
rradius 81.2295
rwrist -7.8286
rhand -40.0323 13.0269
rfingers 7.12502
rthumb -12.999 -16.5481
lclavicle 1.68967e-015 3.79679e-014
lhumerus 53.1377 13.9426 14.8931
lradius 60.8735
lwrist 2.36818
lhand -26.046 29.2207
lfingers 7.12502
lthumb 0.501334 59.1998
rfemur -60.5811 -3.93721 21.3779
rtibia 42.6204
rfoot 1.6339 -1.93793
rtoes -16.0207
lfemur -62.1016 -2.44741 -16.9385
ltibia 47.5116
lfoot -4.75418 0.813818
ltoes -9.277
